<svg xmlns="http://www.w3.org/2000/svg" fill="none" viewBox="0 0 600 600"><path fill="#5B2E6E" d="M0 331V204.5L58 268l58.2-63.4 57.4 63 57.9-63v126.6l-57.3 64.2-58-63.3L58 395.4z"/><mask id="devicon-webix-26-a" width="232" height="192" x="0" y="204" maskUnits="userSpaceOnUse"><path fill="#fff" d="M0 331V204.5L58 268l58.2-63.4 57.4 63 57.9-63v126.6l-57.3 64.2-58-63.3L58 395.4z"/></mask><g mask="url(#devicon-webix-26-a)"><path fill="url(#devicon-webix-27-b)" d="m29 300 29-31.8-58-63.6z"/></g><mask id="devicon-webix-28-c" width="232" height="192" x="0" y="204" maskUnits="userSpaceOnUse"><path fill="#fff" d="M0 331V204.5L58 268l58.2-63.4 57.4 63 57.9-63v126.6l-57.3 64.2-58-63.3L58 395.4z"/></mask><g mask="url(#devicon-webix-28-c)"><path fill="url(#devicon-webix-29-d)" d="m0 204.6 21.3 23.1 23 73.5-22.4 6.9z"/></g><mask id="devicon-webix-30-e" width="232" height="192" x="0" y="204" maskUnits="userSpaceOnUse"><path fill="#fff" d="M0 331V204.5L58 268l58.2-63.4 57.4 63 57.9-63v126.6l-57.3 64.2-58-63.3L58 395.4z"/></mask><g mask="url(#devicon-webix-30-e)"><path fill="url(#devicon-webix-31-f)" d="m28.8 308.8-8.4-28 31.7-19 12.6 13.6z"/></g><mask id="devicon-webix-32-g" width="232" height="192" x="0" y="204" maskUnits="userSpaceOnUse"><path fill="#fff" d="M0 331V204.5L58 268l58.2-63.4 57.4 63 57.9-63v126.6l-57.3 64.2-58-63.3L58 395.4z"/></mask><g mask="url(#devicon-webix-32-g)"><path fill="url(#devicon-webix-33-h)" d="m173.4 268 58 63.2V204.6z"/></g><mask id="devicon-webix-34-i" width="232" height="192" x="0" y="204" maskUnits="userSpaceOnUse"><path fill="#fff" d="M0 331V204.5L58 268l58.2-63.4 57.4 63 57.9-63v126.6l-57.3 64.2-58-63.3L58 395.4z"/></mask><g mask="url(#devicon-webix-34-i)"><path fill="url(#devicon-webix-35-j)" d="m173.4 268 12-13.2 46 51.3v25.1z"/></g><mask id="devicon-webix-36-k" width="232" height="192" x="0" y="204" maskUnits="userSpaceOnUse"><path fill="#fff" d="M0 331V204.5L58 268l58.2-63.4 57.4 63 57.9-63v126.6l-57.3 64.2-58-63.3L58 395.4z"/></mask><g mask="url(#devicon-webix-36-k)"><path fill="url(#devicon-webix-37-l)" d="m174.2 395.4 57.3-64.2-79-86.7z"/></g><mask id="devicon-webix-38-m" width="232" height="192" x="0" y="204" maskUnits="userSpaceOnUse"><path fill="#fff" d="M0 331V204.5L58 268l58.2-63.4 57.4 63 57.9-63v126.6l-57.3 64.2-58-63.3L58 395.4z"/></mask><g mask="url(#devicon-webix-38-m)"><path fill="url(#devicon-webix-39-n)" d="m116.2 332 58 63.4-21.6-150.9z"/></g><mask id="devicon-webix-40-o" width="232" height="192" x="0" y="204" maskUnits="userSpaceOnUse"><path fill="#fff" d="M0 331V204.5L58 268l58.2-63.4 57.4 63 57.9-63v126.6l-57.3 64.2-58-63.3L58 395.4z"/></mask><g mask="url(#devicon-webix-40-o)"><path fill="url(#devicon-webix-41-p)" d="m58 395.4 58.2-63.3V204.6z"/></g><mask id="devicon-webix-42-q" width="232" height="192" x="0" y="204" maskUnits="userSpaceOnUse"><path fill="#fff" d="M0 331V204.5L58 268l58.2-63.4 57.4 63 57.9-63v126.6l-57.3 64.2-58-63.3L58 395.4z"/></mask><g mask="url(#devicon-webix-42-q)"><path fill="url(#devicon-webix-43-r)" d="m58 395.4 22.8-24.8L116.2 242v-37.3z"/></g><mask id="devicon-webix-44-s" width="232" height="192" x="0" y="204" maskUnits="userSpaceOnUse"><path fill="#fff" d="M0 331V204.5L58 268l58.2-63.4 57.4 63 57.9-63v126.6l-57.3 64.2-58-63.3L58 395.4z"/></mask><g mask="url(#devicon-webix-44-s)"><path fill="url(#devicon-webix-45-t)" d="m116.2 332 36.4-87.5-36.4-39.9z"/></g><mask id="devicon-webix-46-u" width="232" height="192" x="0" y="204" maskUnits="userSpaceOnUse"><path fill="#fff" d="M0 331V204.5L58 268l58.2-63.4 57.4 63 57.9-63v126.6l-57.3 64.2-58-63.3L58 395.4z"/></mask><g mask="url(#devicon-webix-46-u)"><path fill="url(#devicon-webix-47-v)" d="m28.6 299.9 29.5 95.5 58-190.8z"/></g><mask id="devicon-webix-48-w" width="232" height="192" x="0" y="204" maskUnits="userSpaceOnUse"><path fill="#fff" d="M0 331V204.5L58 268l58.2-63.4 57.4 63 57.9-63v126.6l-57.3 64.2-58-63.3L58 395.4z"/></mask><g mask="url(#devicon-webix-48-w)"><path fill="url(#devicon-webix-49-x)" d="M26.3 302.4 46.8 280l29 95.9-17.7 19.4z"/></g><mask id="devicon-webix-50-y" width="232" height="192" x="0" y="204" maskUnits="userSpaceOnUse"><path fill="#fff" d="M0 331V204.5L58 268l58.2-63.4 57.4 63 57.9-63v126.6l-57.3 64.2-58-63.3L58 395.4z"/></mask><g mask="url(#devicon-webix-50-y)"><path fill="url(#devicon-webix-51-z)" d="m0 331.6 58 63.8L0 204.6z"/></g><path fill="#000" d="m599 323.4-17.3-20.8 17.3-20.8q.7-1.6.9-3.5a5.4 5.4 0 0 0-5.2-5.2q-2.8.1-4.3 1.8l-14.8 19-15.6-19q-1.5-1.7-4.3-1.8a5.4 5.4 0 0 0-5.2 5.2q.2 1.8.8 3.5l17.4 20.8-17.4 20.8q-.2 1-.8 1.7a6 6 0 0 0 4.3 7c1.9.4 4-.5 5.2-2.6l15.6-18.2 14.8 18.2c1.2 2 3.4 3 5.2 2.6a6 6 0 0 0 4.3-7q-.6-.7-.9-1.7m-57.2-45c0-3-2.3-5.3-5.2-5.3a5 5 0 0 0-5.2 5.2V327q0-.2 0 0c0 2.8 2.4 5.2 5.2 5.2s5.2-2.4 5.2-5.2q0-.4 0 0zq0 .3 0 0m-85 24.2a29.4 29.4 0 1 0-31.2 29.5h1a5 5 0 0 0 5.1-5.2c.3-3-2-5.2-4.3-5.2q-.4-.3-.9 0 .5-.3 0 0 .3-.3 0 0c-8-.5-14.8-5.9-17.3-13h41.6q.6-.4.8 0a5.6 5.6 0 0 0 5.3-5.2zm-47.6-4.3a19.1 19.1 0 0 1 37.3 0zm-16.5-21.7c-1-2.4-3.8-4-7-3.5a8 8 0 0 0-3.4 3.5l-10.4 39-17.3-21.7q-1.2-1.6-3.5-1.7t-3.5 1.7l-17.3 21.7-10.4-39q-1.2-2.3-3.5-3.5c-3.1-.6-6 1.1-7 3.5v2.6l13 49.4a8 8 0 0 0 4.4 3.5c1.8.4 4-.5 5.2-2.6l19-23.4 19.2 23.4a6 6 0 0 0 6 2.6 7 7 0 0 0 3.5-3.5l13-49.4zm100.6-3.5a28 28 0 0 0-19.1 7V248a5 5 0 0 0-5.2-5.2 5.3 5.3 0 0 0-5.2 5.2q0 .2 0 0v54.6a29.5 29.5 0 1 0 29.5-29.5m0 48.6a19 19 0 1 1 0-38.2 19 19 0 0 1 0 38.2m43.3-69.4a5 5 0 0 0-5.2 5.2c0 2.9 2.4 5.2 5.2 5.2s5.2-2.3 5.2-5.2-2.3-5.2-5.2-5.2"/><defs><linearGradient id="devicon-webix-27-b" x1="751.1" x2="6232.2" y1="1067.8" y2="5224.8" gradientUnits="userSpaceOnUse"><stop stop-color="#67337A"/><stop offset="1" stop-color="#723986"/></linearGradient><linearGradient id="devicon-webix-29-d" x1="3665.2" x2="2269.7" y1="4859.8" y2="5286.4" gradientUnits="userSpaceOnUse"><stop stop-color="#623274" stop-opacity="0"/><stop offset="1" stop-color="#542C65"/></linearGradient><linearGradient id="devicon-webix-31-f" x1="650.7" x2="1642.7" y1="-3242.1" y2="-1825.4" gradientUnits="userSpaceOnUse"><stop stop-color="#623274" stop-opacity="0"/><stop offset="1" stop-color="#542C65"/></linearGradient><linearGradient id="devicon-webix-33-h" x1="5498" x2="-268.6" y1="913.3" y2="6457.9" gradientUnits="userSpaceOnUse"><stop stop-color="#8A519F"/><stop offset="1" stop-color="#8A53A0"/></linearGradient><linearGradient id="devicon-webix-35-j" x1="4173.8" x2="3158.2" y1="2105.9" y2="3157.5" gradientUnits="userSpaceOnUse"><stop stop-color="#8A529F" stop-opacity=".1"/><stop offset="1" stop-color="#542C65"/></linearGradient><linearGradient id="devicon-webix-37-l" x1="2101" x2="7647" y1="4981" y2="6843" gradientUnits="userSpaceOnUse"><stop stop-color="#5C2E6D"/><stop offset="1" stop-color="#6D377B"/></linearGradient><linearGradient id="devicon-webix-39-n" x1="833.2" x2="5118.5" y1="5442.1" y2="5899.1" gradientUnits="userSpaceOnUse"><stop stop-color="#612E74"/><stop offset="1" stop-color="#7F4395"/></linearGradient><linearGradient id="devicon-webix-41-p" x1="5866.2" x2="5866.2" y1="204.6" y2="13432.6" gradientUnits="userSpaceOnUse"><stop stop-color="#582C6A"/><stop offset="1" stop-color="#743983"/></linearGradient><linearGradient id="devicon-webix-43-r" x1="2962.2" x2="1181.4" y1="14467.9" y2="14412.8" gradientUnits="userSpaceOnUse"><stop stop-color="#623274" stop-opacity="0"/><stop offset="1" stop-color="#542C65"/></linearGradient><linearGradient id="devicon-webix-45-t" x1="116.2" x2="116.2" y1="204.6" y2="12947.9" gradientUnits="userSpaceOnUse"><stop stop-color="#723A85"/><stop offset="1" stop-color="#8C519C"/></linearGradient><linearGradient id="devicon-webix-47-v" x1="28.6" x2="5610.9" y1="7056.5" y2="7500.4" gradientUnits="userSpaceOnUse"><stop stop-color="#66397A"/><stop offset="1" stop-color="#9F69AB"/></linearGradient><linearGradient id="devicon-webix-49-x" x1="3425.1" x2="1622.6" y1="4972.9" y2="5523.9" gradientUnits="userSpaceOnUse"><stop stop-color="#623274" stop-opacity="0"/><stop offset="1" stop-color="#542C65"/></linearGradient><linearGradient id="devicon-webix-51-z" x1="2904.1" x2="2904.1" y1="4217.1" y2="15117" gradientUnits="userSpaceOnUse"><stop stop-color="#5D306E"/><stop offset="1" stop-color="#9F6AAA"/></linearGradient></defs></svg>