<svg xmlns="http://www.w3.org/2000/svg" width="600" height="600" fill="none" viewBox="0 0 600 600"><path fill="currentColor" d="M245.3 297.8a6 6 0 0 1 5.2 1.8 6 6 0 0 1 1.2 5.4c-2.2 9.3-8.3 14.5-17.3 16.8a42 42 0 0 1-6 .6l2.6-8.3q2.5-6.5 7-11.7 3-3.6 7.3-4.6m232.1-3.2c1.3-.6 2.8.6 3.4 2q1.2 3.3.2 6.5a69 69 0 0 1-14 28 36 36 0 0 1-8.3 8c-1.9 1.2-3.7 1.7-4.7-.6l-.6-2c-.4-4 1.6-8.2 3-11.9q2.2-6 5-12a43 43 0 0 1 10.7-15.2q2.4-1.9 5.3-2.8"/><path fill="currentColor" fill-rule="evenodd" d="M559 205.1a40 40 0 0 1 20.5 4.5 32 32 0 0 1 14.6 16.7l1.3-1.4v5.7a32 32 0 0 1 0 14v.5l-.2.9a57 57 0 0 1-17.8 27.2q1.5 6.3.5 12.6a98 98 0 0 1-5.4 19.9l-2.6 7.8c-2 7.2-4.4 15.4-6.2 23.8a62 62 0 0 0-1.2 17 24 24 0 0 1-2.3 12.2 24 24 0 0 1-8 9.4 60 60 0 0 1-17.1 9.3h-.3a30 30 0 0 1-23.5-1.8 47 47 0 0 1-21 4.7 38 38 0 0 1-25.7-9.5l-1.5.7a41 41 0 0 1-24.6 4.3 38 38 0 0 1-20.1-8.4l-.2-.1v-.1a38 38 0 0 1-8.7-11.4 73 73 0 0 1-24.4 19.8 48 48 0 0 1-34.2 3 59 59 0 0 1-17-7.3h-.2l-2-1.4-.3.3-3.3 3a26 26 0 0 1-18.1 7.2l-4.6-.2h-.3a70 70 0 0 1-16.2-4.6h-.3l-1.5-.7a38 38 0 0 1-10.6-7.1 79 79 0 0 1-11 6 61 61 0 0 1-19.8 5.7q-8.8 1.1-17.5.8a58 58 0 0 1-29.4-9.4h-.2a47 47 0 0 1-16.4-20l-1.5.4a47 47 0 0 1-26.4-1.9 31 31 0 0 1-12.8-8.9 235 235 0 0 0-7.6 13.4l-1.4 2.9a68 68 0 0 1-4 7.8 34 34 0 0 1-12.6 12 34 34 0 0 1-16 4.1h-.6a37 37 0 0 1-15.3-2.9 67 67 0 0 1-20.8 6H62q-4.7.6-9.8.7h-3.3a52 52 0 0 1-30.6-11.6 49 49 0 0 1-17.2-28.6 64 64 0 0 1-.6-22 88 88 0 0 1 9.8-29.4 114 114 0 0 1 13.3-20 86 86 0 0 1 20-17.8 59 59 0 0 1 21.1-8.6q17-2.8 32.2 8a51 51 0 0 1 7.1 5.8 40 40 0 0 1 20.7-9.9 30 30 0 0 1 17.7 2.5 30 30 0 0 1 8.2 5.7l2.7-1.3a48 48 0 0 1 21.6-5l.7.1c11.8.4 21.8 4.4 29 12.8l.8.9.3-.3a59 59 0 0 1 29.4-14.7h.3a56 56 0 0 1 11.9-.4h2.2a48 48 0 0 1 18.3 4.4A42 42 0 0 1 279 270a37 37 0 0 1 21-11.5 33 33 0 0 1 25 5.5l.6.5a29 29 0 0 1 7.6 8.5q4.8-5 11-7.9a34 34 0 0 1 34.6 2.6h.1a28 28 0 0 1 8 9q4.5-5.6 12-10.5a47 47 0 0 1 9.5-4.7h.2c5.7-2 13.7-2.6 21.3-1.1 5 1 10.6 3 15.1 7a54 54 0 0 1 6.7-3.9 48 48 0 0 1 21.5-5h.5a55 55 0 0 1 15.4 1.8l1 .3h.1a33 33 0 0 1 7.1 3.2 31 31 0 0 1 22.8 3.5l2-2.4.7-.7a38 38 0 0 1 5.6-5l-1.2-5.2a66 66 0 0 1-1.5-11.5v-.5a38 38 0 0 1 7-22.6 34 34 0 0 1 11.5-10.2 34 34 0 0 1 14.8-4m-473.3 73a22 22 0 0 0-17.5-4.7 40 40 0 0 0-14.2 5.8A67 67 0 0 0 38.5 293q-6.4 7.8-11.2 16.8a68 68 0 0 0-7.7 22.9 44 44 0 0 0 .4 15.5 30 30 0 0 0 10.4 17.5 33 33 0 0 0 19.3 7.2 72 72 0 0 0 11.4-.6 49 49 0 0 0 15.8-4.9q4.9-2.4 9.3-5a10 10 0 0 0 4.4 5 18 18 0 0 0 8.5 1.8 14 14 0 0 0 12.7-7c1.9-3 3.1-6.4 4.7-9.4a256 256 0 0 1 16.9-27.4 137 137 0 0 1 19.2-23.2q2.8-2.4 6.1-4a3 3 0 0 1 2.4.2 3 3 0 0 1 1.4 2q.1 1.9-.5 3.7l-3.6 6.7a32 32 0 0 0-5.1 17.3 12 12 0 0 0 7.7 11 28 28 0 0 0 15.7 1 21 21 0 0 0 16.7-15l.5-.8q.6-1.4-1-1.5-1 0-2-.3c-2.9-.7-4.4-2.7-3.6-5.4q1.8-5.2 3.8-10c1.9-4.6 3.6-9 2.6-14q-.6-4.1-3.4-7.3c-4-4.5-9.4-6-15.2-6.2a29 29 0 0 0-13.4 3 59 59 0 0 0-15.7 11.3c-2.9 2.7-5.3 5.8-8.3 9l1.4-4.1c1.6-4.8 2.8-9.7.7-14.7-2.4-5.8-7.1-7.4-12.2-6.8-6.3.9-10.8 4.7-14.4 9.7a92 92 0 0 0-8.1 14.6l-7 15.7L90 339a4 4 0 0 1-1.3 1.7 88 88 0 0 1-8.4 6.5 44 44 0 0 1-25.7 6.6 10 10 0 0 1-9.7-8.6q-1.1-5.6-.3-11.1a38 38 0 0 1 4-13.8 108 108 0 0 1 13.2-21 125 125 0 0 1 8.1-8.9q2.4-2.6 6.1-3.5a3 3 0 0 1 1.3 2.7l-.3 1q-3.3 6.9-5.9 13.9-2.7 5.8-2 12.2a17 17 0 0 0 4 7.8 17 17 0 0 0 7.4 4.7 4 4 0 0 0 3-.2 4 4 0 0 0 1.9-2.2l6-13.2a62 62 0 0 0 5-13.4 17 17 0 0 0-1.6-12.6q-3.5-5.7-9.1-9.5m223.1-.4a14 14 0 0 0-5.6 0 18 18 0 0 0-6.8 2.8 18 18 0 0 0-5.1 5.2 47 47 0 0 0-7.6 17 199 199 0 0 0-2.8 15.3l-.7 7.2a3 3 0 0 1-.8 1.8q-3 3.2-6.2 6.3a54 54 0 0 1-13.7 9.5 26 26 0 0 1-21.6 1.4 14 14 0 0 1-8.9-10.5h8.8a42 42 0 0 0 19.4-5 30 30 0 0 0 13.1-13.2 28 28 0 0 0 2.2-20.3 21 21 0 0 0-12.6-14.6 29 29 0 0 0-11-2.7 55 55 0 0 0-10.5.1 39 39 0 0 0-19.7 10 64 64 0 0 0-14.2 18.4 67 67 0 0 0-7.4 25q-.7 7.5 1.2 14.9a28 28 0 0 0 11.2 16.3 38 38 0 0 0 19.5 6.1q7.4.2 14.6-.6a42 42 0 0 0 13.8-4 61 61 0 0 0 19-13.7l4.8-5.2 4.2 10.1a19 19 0 0 0 9.6 9.7 51 51 0 0 0 13 3.7 7 7 0 0 0 3.5 0 7 7 0 0 0 3.1-1.6l9-8.7 4.5-5.6 6.3-8.2.7 3.7c1.4 6 3.9 11 9.2 14.6q5.4 3.3 11.6 4.8a29 29 0 0 0 20.6-1.8 54 54 0 0 0 18.1-14.8 162 162 0 0 0 11-14.4 504 504 0 0 0 14.6-24.2l7-12.5c2-3.4 7-9.5 7.2-13.3a5 5 0 0 0-.4-2.6l-.1-.3c-2.7-5.2-14.3-5.8-19.1-4.1a28 28 0 0 0-5.5 2.8c-8.3 5.1-11.2 11.7-15 20.2q-5.5 12.8-11.5 25.3a126 126 0 0 1-9.3 15.3q-3.1 5-8.7 6.3c-2.2.5-3-.5-3.8-2.4a18 18 0 0 1-1.3-5.4 43 43 0 0 1 2-15.8l7.5-24.4q2-5.4 1.9-11a9 9 0 0 0-3.3-7 15 15 0 0 0-15.1-1.1 24 24 0 0 0-10.9 11.6l-9.9 20.9-7.2 14.2a112 112 0 0 1-11 18.5c-.7.9-2 2-2.7 2-.9-.2-1.6-1.6-2.4-2.5l-.3-.5a29 29 0 0 1-.6-13q1.2-7.3 2.9-14.5l6.8-28.8A10 10 0 0 0 314 280a14 14 0 0 0-5.2-2.3m241.4-5.9c-5.7-.5-10 2.3-13.6 6a59 59 0 0 0-7.6 10.8 118 118 0 0 0-9.7 24.5l-5.2 17.4c-1.3 4.2-2.7 10.7-6.6 14a5 5 0 0 1-3.5 1.4c-1.7-.2-2.3-2-2.3-3.5V337q.6-8.1 3.3-15.8l8-25.3q1.5-4.4 0-9a7 7 0 0 0-2-2.7c-3.4-2.8-9.8-2.3-13.6.3l-3.9 2.6-.7-1.1a14 14 0 0 0-8.3-7 39 39 0 0 0-11.4-1.2 29 29 0 0 0-13 3 41 41 0 0 0-15.6 14 147 147 0 0 0-11.5 18.7 75 75 0 0 0-7.5 21 41 41 0 0 0-1 8q0 3.3.6 6.6 1 6.6 5.8 11.1 4.5 3.6 10.1 4.1a21 21 0 0 0 13.2-2.3 42 42 0 0 0 11.6-9l4.5-4.6.4 2.2q1 7 5.6 12.3c5.2 5.5 11.8 6.4 18.8 5.4a28 28 0 0 0 10.8-4c1.7-1.2 6.7-7 8.7-5.5 2.4 1.8 2.6 5.3 5.3 7.1a11 11 0 0 0 9.2.7 42 42 0 0 0 11.9-6.5 5 5 0 0 0 2.1-4.8 86 86 0 0 1 1.7-22.3 414 414 0 0 1 6.5-25c2.4-8.4 6.3-16.4 7.5-25.2a15 15 0 0 0-.5-6.3v-.2c-1.4-3.5-4.8-4.2-8.1-4.5m20.3-45q-5-2.6-10.6-2.3a14 14 0 0 0-11.4 6.2 18 18 0 0 0-3.3 11.2 45 45 0 0 0 1 8.2 32 32 0 0 0 4.2 11.5c1.7 2.6 3.6 3.4 6.6 2.1a25 25 0 0 0 6.5-4.1 38 38 0 0 0 12.9-18.3c1.3-5.5-.7-11.8-5.9-14.5" clip-rule="evenodd"/></svg>